<svg width="631" height="162" viewBox="0 0 631 162" fill="none" xmlns="http://www.w3.org/2000/svg">
<g clip-path="url(#clip0_8_345)">
<path d="M147.909 77.454C156.429 82.708 160.405 91.37 160.405 100.6C160.405 115.652 150.749 129 126.609 129H92.6713V84.554H83.0153V72.342H92.6713V29.6H124.905C148.335 29.6 157.707 42.806 157.707 56.722C157.707 64.674 154.441 72.342 147.909 77.454ZM124.905 42.096H105.735V72.342H125.473C138.537 72.342 144.075 65.668 144.075 57.148C144.075 48.486 138.537 42.096 124.905 42.096ZM105.735 116.504H126.609C140.809 116.504 146.631 109.83 146.631 100.6C146.631 91.37 140.809 84.554 127.177 84.554H105.735V116.504ZM163.451 96.482V29.6H176.941V96.482C176.941 112.67 184.467 118.634 193.555 118.634C202.501 118.634 210.027 112.67 210.027 96.482V29.6H223.517V96.482C223.517 119.628 209.743 131.13 193.555 131.13C177.083 131.13 163.451 119.628 163.451 96.482ZM243.509 29.6V116.504H281.423V129H230.019V29.6H243.509ZM368.252 70.07V29.6H381.742V68.792C381.742 98.612 376.204 114.942 360.3 129H345.106C338.574 123.178 333.746 117.072 330.48 109.688C327.072 117.072 322.244 123.178 315.712 129H300.518C284.614 114.942 279.076 98.612 279.076 68.792V29.6H292.566V70.07C292.566 97.476 298.814 110.256 308.186 120.906C317.416 110.256 323.664 97.476 323.664 70.07V29.6H337.154V70.07C337.154 97.476 343.402 110.256 352.632 121.048C361.862 110.256 368.252 97.476 368.252 70.07ZM448.937 61.976V116.646H458.735V129H388.871V61.976C388.871 38.972 402.503 27.47 418.975 27.47C435.163 27.47 448.937 38.972 448.937 61.976ZM402.361 61.976V116.646H435.447V61.976C435.447 45.93 427.921 39.966 418.975 39.966C409.887 39.966 402.361 45.93 402.361 61.976ZM516.059 85.406C523.585 91.796 527.845 102.02 527.845 116.22V129H514.355V117.498C514.355 97.192 506.829 89.524 491.351 89.524H479.991V129H466.501V89.524H456.703V77.312H466.501V29.6H495.753C520.035 29.6 531.963 41.954 531.963 59.136C531.963 70.496 526.709 80.152 516.059 85.406ZM479.991 42.096V77.312H495.611C511.515 77.312 518.757 69.644 518.757 59.42C518.757 49.48 511.373 42.096 495.469 42.096H479.991ZM584.92 75.75C593.866 80.72 599.546 90.944 599.546 107.416V129H586.056V107.558C586.056 90.376 579.098 84.27 568.448 84.27H556.094V129H542.462V84.27H532.806V72.058H542.462V29.6H556.094V72.058H563.478C572.85 72.058 579.95 65.952 579.95 48.628V29.6H593.44V49.196C593.44 61.266 590.174 70.07 584.92 75.75Z" fill="#C9C7BA"/>
<path d="M61.9968 93.9956V56L53.9984 64L46 56V93.9956C46 98.4395 47.6243 107.261 54.1214 106.994C60.6186 106.727 62.0788 98.2173 61.9968 93.9956Z" fill="#F66435"/>
<path d="M77.988 105.991V106.1L77.9919 106.21C78.1017 109.221 77.1349 114.096 73.82 118.169C70.6907 122.014 64.9757 125.756 54.3241 125.99C43.7822 126.22 37.9784 122.596 34.6911 118.67C31.1894 114.489 30 109.302 30 105.991V36H77.988V105.991Z" stroke="#F66435" stroke-width="12"/>
</g>
<defs>
<clipPath id="clip0_8_345">
<rect width="631" height="162" fill="white"/>
</clipPath>
</defs>
</svg>
