<svg width="512" height="512" viewBox="0 0 512 512" fill="none" xmlns="http://www.w3.org/2000/svg">
<path d="M389.947 190.201C388.532 115.746 327.202 56.6068 252.927 58.025C180.632 59.3723 122.415 117.802 121.071 190.201C121.071 190.555 121 190.91 121 191.194V193.25V436.967C121 445.264 127.72 451.929 135.926 451.929C144.131 451.929 150.852 445.193 150.852 436.967V393.428C150.852 385.132 157.572 378.467 165.777 378.467C173.983 378.467 180.703 385.203 180.703 393.428V414.063C180.915 422.36 187.706 428.883 195.983 428.742C203.976 428.6 210.413 422.076 210.625 414.063V393.428C210.625 385.132 217.346 378.467 225.551 378.467C233.828 378.467 240.477 385.203 240.477 393.428V399.101C240.477 407.398 247.197 414.063 255.403 414.063C263.679 414.063 270.329 407.327 270.329 399.101V393.428C270.541 385.132 277.332 378.608 285.608 378.75C293.601 378.892 300.039 385.416 300.251 393.428V414.063C300.251 422.36 306.971 429.025 315.177 429.025C323.382 429.025 330.244 422.431 330.244 414.134V393.499C330.244 385.203 336.964 378.537 345.17 378.537C353.446 378.537 360.095 385.274 360.095 393.499V437.038C360.095 445.334 366.816 452 375.021 452C383.227 452 389.947 445.264 389.947 437.038V191.265C390.018 190.91 390.018 190.555 389.947 190.201ZM205.886 211.828C192.658 211.828 181.976 199.561 181.976 184.315C181.976 169.07 192.729 156.802 205.886 156.802C219.043 156.802 229.795 169.07 229.795 184.315C229.795 199.561 219.114 211.828 205.886 211.828ZM256.535 250.687C244.509 250.687 234.818 243.525 234.818 234.661C234.818 225.798 244.58 231.187 256.535 231.187C268.489 231.187 278.251 225.869 278.251 234.661C278.251 243.454 268.56 250.616 256.535 250.687ZM305.132 211.828C291.904 211.828 281.222 199.561 281.222 184.315C281.222 169.07 291.904 156.802 305.132 156.802C318.36 156.802 329.041 169.07 329.041 184.315C329.041 199.561 318.289 211.828 305.132 211.828Z" fill="url(#paint0_linear_4609_13488)"/>
<defs>
<linearGradient id="paint0_linear_4609_13488" x1="111.302" y1="434.604" x2="457.244" y2="272.917" gradientUnits="userSpaceOnUse">
<stop stop-color="#30BAC6"/>
<stop offset="1" stop-color="#B6509E"/>
</linearGradient>
</defs>
</svg>
